<?xml version="1.0" encoding="iso-8859-1"?>
<!-- Generator: Adobe Illustrator 19.0.0, SVG Export Plug-In . SVG Version: 6.00 Build 0)  -->
<svg version="1.1" id="Layer_1" xmlns="http://www.w3.org/2000/svg" xmlns:xlink="http://www.w3.org/1999/xlink" x="0px" y="0px"
	 viewBox="0 0 512 512" style="enable-background:new 0 0 512 512;" xml:space="preserve" fill="#ffd15c">
<g>
	<g>
		<path d="M396.165,362.702c-4.197-50.362-26.931-86.466-65.362-110.252v-92.389h8.246c9.86,0,17.855-7.994,17.855-17.855
			c0-9.861-7.994-17.855-17.855-17.855c-6.468,0-159.825,0-166.09,0c-9.861,0-17.855,7.994-17.855,17.855
			c0,9.86,7.994,17.855,17.855,17.855h8.246v92.404c-32.126,19.956-53.158,50.545-60.565,80.173
			C97.88,416.134,154.728,512,256.005,512C344.435,512,399.953,438.61,396.165,362.702z M232.484,411.083
			c-3.095,7.976-12.069,11.934-20.045,8.839c-7.976-3.094-11.934-12.069-8.839-20.045c3.094-7.976,12.068-11.933,20.045-8.839
			C231.621,394.133,235.579,403.107,232.484,411.083z M312.227,442.019c-6.004,15.478-23.419,23.157-38.897,17.154
			c-15.478-6.004-23.157-23.419-17.154-38.897c6.004-15.478,23.419-23.157,38.897-17.154
			C310.552,409.127,318.232,426.541,312.227,442.019z M271.644,345.738c-2.248-14.638-14.968-26.258-30.623-26.258h-76.708
			c8.079-14.398,21.33-29.464,43.046-40.861c5.877-3.084,9.557-9.173,9.557-15.81V160.062h78.179v102.747
			c0,6.638,3.683,12.729,9.563,15.812c27.779,14.568,46.498,38.447,53.219,67.117H271.644z"/>
	</g>
</g>
<g>
	<g>
		<path d="M222.941,0c-9.86,0-17.855,7.994-17.855,17.855v55.633c0,9.861,7.994,17.855,17.855,17.855
			c9.861,0,17.855-7.994,17.855-17.855V17.855C240.796,7.994,232.802,0,222.941,0z"/>
	</g>
</g>
<g>
	<g>
		<path d="M289.07,0c-9.86,0-17.855,7.994-17.855,17.855v55.633c0,9.861,7.993,17.855,17.855,17.855
			c9.861,0,17.855-7.994,17.855-17.855V17.855C306.924,7.994,298.93,0,289.07,0z"/>
	</g>
</g>
<g>
</g>
<g>
</g>
<g>
</g>
<g>
</g>
<g>
</g>
<g>
</g>
<g>
</g>
<g>
</g>
<g>
</g>
<g>
</g>
<g>
</g>
<g>
</g>
<g>
</g>
<g>
</g>
<g>
</g>
</svg>
